<?xml version="1.0" encoding="UTF-8"?>
<!DOCTYPE svg PUBLIC "-//W3C//DTD SVG 1.1//EN" "http://www.w3.org/Graphics/SVG/1.1/DTD/svg11.dtd">
<svg width="160mm" height="90mm" viewBox="0 0 16000 9000" version="1.1" xmlns="http://www.w3.org/2000/svg" xmlns:xlink="http://www.w3.org/1999/xlink" stroke-width="28.222" stroke-linejoin="round" xml:space="preserve">
 <path fill="rgb(255,255,255)" stroke="none" d="M 7987,8986 L -13,8986 -13,-13 15986,-13 15986,8986 7987,8986 Z"/>
 <path fill="none" stroke="rgb(179,179,179)" stroke-linejoin="round" d="M 6599,8159 L 750,8159 750,366 12448,366 12448,8159 6599,8159 Z"/>
 <path fill="none" stroke="rgb(179,179,179)" stroke-linejoin="round" d="M 12447,8158 L 749,8158"/>
 <path fill="none" stroke="rgb(179,179,179)" stroke-linejoin="round" d="M 12447,7183 L 749,7183"/>
 <path fill="none" stroke="rgb(179,179,179)" stroke-linejoin="round" d="M 12447,6209 L 749,6209"/>
 <path fill="none" stroke="rgb(179,179,179)" stroke-linejoin="round" d="M 12447,5235 L 749,5235"/>
 <path fill="none" stroke="rgb(179,179,179)" stroke-linejoin="round" d="M 12447,4262 L 749,4262"/>
 <path fill="none" stroke="rgb(179,179,179)" stroke-linejoin="round" d="M 12447,3287 L 749,3287"/>
 <path fill="none" stroke="rgb(179,179,179)" stroke-linejoin="round" d="M 12447,2313 L 749,2313"/>
 <path fill="none" stroke="rgb(179,179,179)" stroke-linejoin="round" d="M 12447,1339 L 749,1339"/>
 <path fill="none" stroke="rgb(179,179,179)" stroke-linejoin="round" d="M 12447,365 L 749,365"/>
 <path fill="none" stroke="rgb(179,179,179)" stroke-linejoin="round" d="M 749,8308 L 749,8158"/>
 <path fill="none" stroke="rgb(179,179,179)" stroke-linejoin="round" d="M 749,8308 L 749,8158"/>
 <path fill="none" stroke="rgb(179,179,179)" stroke-linejoin="round" d="M 2212,8308 L 2212,8158"/>
 <path fill="none" stroke="rgb(179,179,179)" stroke-linejoin="round" d="M 2212,8308 L 2212,8158"/>
 <path fill="none" stroke="rgb(179,179,179)" stroke-linejoin="round" d="M 3674,8308 L 3674,8158"/>
 <path fill="none" stroke="rgb(179,179,179)" stroke-linejoin="round" d="M 3674,8308 L 3674,8158"/>
 <path fill="none" stroke="rgb(179,179,179)" stroke-linejoin="round" d="M 5137,8308 L 5137,8158"/>
 <path fill="none" stroke="rgb(179,179,179)" stroke-linejoin="round" d="M 5137,8308 L 5137,8158"/>
 <path fill="none" stroke="rgb(179,179,179)" stroke-linejoin="round" d="M 6599,8308 L 6599,8158"/>
 <path fill="none" stroke="rgb(179,179,179)" stroke-linejoin="round" d="M 6599,8308 L 6599,8158"/>
 <path fill="none" stroke="rgb(179,179,179)" stroke-linejoin="round" d="M 8060,8308 L 8060,8158"/>
 <path fill="none" stroke="rgb(179,179,179)" stroke-linejoin="round" d="M 8060,8308 L 8060,8158"/>
 <path fill="none" stroke="rgb(179,179,179)" stroke-linejoin="round" d="M 9523,8308 L 9523,8158"/>
 <path fill="none" stroke="rgb(179,179,179)" stroke-linejoin="round" d="M 9523,8308 L 9523,8158"/>
 <path fill="none" stroke="rgb(179,179,179)" stroke-linejoin="round" d="M 10985,8308 L 10985,8158"/>
 <path fill="none" stroke="rgb(179,179,179)" stroke-linejoin="round" d="M 10985,8308 L 10985,8158"/>
 <path fill="none" stroke="rgb(179,179,179)" stroke-linejoin="round" d="M 12447,8308 L 12447,8158"/>
 <path fill="none" stroke="rgb(179,179,179)" stroke-linejoin="round" d="M 12447,8308 L 12447,8158"/>
 <path fill="none" stroke="rgb(179,179,179)" stroke-linejoin="round" d="M 749,8158 L 12447,8158"/>
 <path fill="none" stroke="rgb(179,179,179)" stroke-linejoin="round" d="M 599,8158 L 749,8158"/>
 <path fill="none" stroke="rgb(179,179,179)" stroke-linejoin="round" d="M 599,8158 L 749,8158"/>
 <path fill="none" stroke="rgb(179,179,179)" stroke-linejoin="round" d="M 599,7183 L 749,7183"/>
 <path fill="none" stroke="rgb(179,179,179)" stroke-linejoin="round" d="M 599,7183 L 749,7183"/>
 <path fill="none" stroke="rgb(179,179,179)" stroke-linejoin="round" d="M 599,6209 L 749,6209"/>
 <path fill="none" stroke="rgb(179,179,179)" stroke-linejoin="round" d="M 599,6209 L 749,6209"/>
 <path fill="none" stroke="rgb(179,179,179)" stroke-linejoin="round" d="M 599,5235 L 749,5235"/>
 <path fill="none" stroke="rgb(179,179,179)" stroke-linejoin="round" d="M 599,5235 L 749,5235"/>
 <path fill="none" stroke="rgb(179,179,179)" stroke-linejoin="round" d="M 599,4262 L 749,4262"/>
 <path fill="none" stroke="rgb(179,179,179)" stroke-linejoin="round" d="M 599,4262 L 749,4262"/>
 <path fill="none" stroke="rgb(179,179,179)" stroke-linejoin="round" d="M 599,3287 L 749,3287"/>
 <path fill="none" stroke="rgb(179,179,179)" stroke-linejoin="round" d="M 599,3287 L 749,3287"/>
 <path fill="none" stroke="rgb(179,179,179)" stroke-linejoin="round" d="M 599,2313 L 749,2313"/>
 <path fill="none" stroke="rgb(179,179,179)" stroke-linejoin="round" d="M 599,2313 L 749,2313"/>
 <path fill="none" stroke="rgb(179,179,179)" stroke-linejoin="round" d="M 599,1339 L 749,1339"/>
 <path fill="none" stroke="rgb(179,179,179)" stroke-linejoin="round" d="M 599,1339 L 749,1339"/>
 <path fill="none" stroke="rgb(179,179,179)" stroke-linejoin="round" d="M 599,365 L 749,365"/>
 <path fill="none" stroke="rgb(179,179,179)" stroke-linejoin="round" d="M 599,365 L 749,365"/>
 <path fill="none" stroke="rgb(179,179,179)" stroke-linejoin="round" d="M 749,8158 L 749,365"/>
 <path fill="none" stroke="rgb(0,69,134)" stroke-width="80" stroke-linejoin="round" d="M 1948,8158 L 1953,8125 1966,8093 1967,8060 1987,8028 1968,7995 1971,7963 1968,7930 1974,7898 1970,7865 1977,7833 1955,7800 1938,7768 1945,7735 3772,7703 10234,7670 8464,7638 2544,7605 1984,7573 1983,7540 1991,7508 2010,7476 2023,7443 2010,7411 2016,7378 2032,7346 2037,7313 2027,7281 2025,7248 2038,7216 2067,7183 2082,7151 2083,7118 2021,7086 2010,7053 2024,7021 2046,6988 2012,6956 2027,6923 2004,6891 2005,6859 1975,6826 1971,6794 1979,6761 1991,6729 1997,6696 2011,6664 1998,6631 1984,6599 1970,6566 1963,6534 1926,6501 1966,6469 1940,6436 1948,6404 1945,6371 1951,6339 1944,6306 1963,6274 1956,6241 1943,6209 1948,6177 1957,6144 1963,6112 1944,6079 1912,6047 1899,6014 1898,5982 1928,5949 5250,5917 11109,5884 6583,5852 1974,5819 1946,5787 1955,5754 1981,5722 1995,5689 2007,5657 2007,5624 2016,5592 2040,5560 2021,5527 2029,5495 2016,5462 2074,5430 2075,5397 2088,5365 2055,5332 2034,5300 2028,5267 2043,5235 2054,5202 2045,5170 2053,5137 2030,5105 2020,5072 1993,5040 1997,5007 2011,4975 1999,4942 1999,4910 1995,4878 1981,4845 1962,4813 1992,4780 1971,4748 1955,4715 1946,4683 1973,4650 1964,4618 1975,4585 1969,4553 1970,4520 1969,4488 1983,4456 1979,4424 1990,4391 1985,4359 1999,4326 1980,4294 1964,4262 1967,4229 1979,4197 2067,4164 6392,4132 11387,4099 5706,4067 2003,4034 2019,4002 2022,3969 2040,3937 2064,3904 2081,3872 2081,3839 2125,3807 2127,3774 2144,3742 2125,3709 2137,3677 2150,3644 2192,3612 2196,3580 2189,3547 2178,3515 2188,3482 2201,3450 2207,3417 2113,3385 2063,3352 2023,3320 1963,3287 1963,3255 2001,3222 2013,3190 2048,3157 2034,3125 2046,3092 2022,3060 2035,3027 2030,2995 2036,2963 1995,2930 2002,2898 2000,2865 2001,2833 2010,2800 1983,2768 1962,2735 1972,2703 1955,2670 1952,2638 1932,2605 1926,2573 1907,2540 1890,2508 1863,2475 1848,2443 1834,2410 2219,2378 7686,2345 10396,2313 4022,2281 1745,2248 1732,2216 1733,2183 1735,2151 1732,2118 1697,2086 1681,2053 1680,2021 1673,1988 1660,1956 1603,1923 1610,1891 1630,1858 1639,1826 1626,1793 1580,1761 1549,1728 1526,1696 1548,1664 1548,1631 1559,1599 1555,1566 1537,1534 1528,1501 1538,1469 1544,1436 1574,1404 1587,1371 1595,1339 1598,1306 1632,1274"/>
 <path fill="rgb(0,69,134)" stroke="none" d="M 1823,8033 L 1823,8283 2073,8283 2073,8033 1823,8033 Z"/>
 <path fill="none" stroke="rgb(0,69,134)" stroke-linejoin="round" d="M 1823,8033 L 1823,8283 2073,8283 2073,8033 1823,8033 Z"/>
 <path fill="rgb(0,69,134)" stroke="none" d="M 1828,8000 L 1828,8250 2078,8250 2078,8000 1828,8000 Z"/>
 <path fill="none" stroke="rgb(0,69,134)" stroke-linejoin="round" d="M 1828,8000 L 1828,8250 2078,8250 2078,8000 1828,8000 Z"/>
 <path fill="rgb(0,69,134)" stroke="none" d="M 1841,7968 L 1841,8218 2091,8218 2091,7968 1841,7968 Z"/>
 <path fill="none" stroke="rgb(0,69,134)" stroke-linejoin="round" d="M 1841,7968 L 1841,8218 2091,8218 2091,7968 1841,7968 Z"/>
 <path fill="rgb(0,69,134)" stroke="none" d="M 1842,7935 L 1842,8185 2092,8185 2092,7935 1842,7935 Z"/>
 <path fill="none" stroke="rgb(0,69,134)" stroke-linejoin="round" d="M 1842,7935 L 1842,8185 2092,8185 2092,7935 1842,7935 Z"/>
 <path fill="rgb(0,69,134)" stroke="none" d="M 1862,7903 L 1862,8153 2112,8153 2112,7903 1862,7903 Z"/>
 <path fill="none" stroke="rgb(0,69,134)" stroke-linejoin="round" d="M 1862,7903 L 1862,8153 2112,8153 2112,7903 1862,7903 Z"/>
 <path fill="rgb(0,69,134)" stroke="none" d="M 1843,7870 L 1843,8120 2093,8120 2093,7870 1843,7870 Z"/>
 <path fill="none" stroke="rgb(0,69,134)" stroke-linejoin="round" d="M 1843,7870 L 1843,8120 2093,8120 2093,7870 1843,7870 Z"/>
 <path fill="rgb(0,69,134)" stroke="none" d="M 1846,7838 L 1846,8088 2096,8088 2096,7838 1846,7838 Z"/>
 <path fill="none" stroke="rgb(0,69,134)" stroke-linejoin="round" d="M 1846,7838 L 1846,8088 2096,8088 2096,7838 1846,7838 Z"/>
 <path fill="rgb(0,69,134)" stroke="none" d="M 1843,7805 L 1843,8055 2093,8055 2093,7805 1843,7805 Z"/>
 <path fill="none" stroke="rgb(0,69,134)" stroke-linejoin="round" d="M 1843,7805 L 1843,8055 2093,8055 2093,7805 1843,7805 Z"/>
 <path fill="rgb(0,69,134)" stroke="none" d="M 1849,7773 L 1849,8023 2099,8023 2099,7773 1849,7773 Z"/>
 <path fill="none" stroke="rgb(0,69,134)" stroke-linejoin="round" d="M 1849,7773 L 1849,8023 2099,8023 2099,7773 1849,7773 Z"/>
 <path fill="rgb(0,69,134)" stroke="none" d="M 1845,7740 L 1845,7990 2095,7990 2095,7740 1845,7740 Z"/>
 <path fill="none" stroke="rgb(0,69,134)" stroke-linejoin="round" d="M 1845,7740 L 1845,7990 2095,7990 2095,7740 1845,7740 Z"/>
 <path fill="rgb(0,69,134)" stroke="none" d="M 1852,7708 L 1852,7958 2102,7958 2102,7708 1852,7708 Z"/>
 <path fill="none" stroke="rgb(0,69,134)" stroke-linejoin="round" d="M 1852,7708 L 1852,7958 2102,7958 2102,7708 1852,7708 Z"/>
 <path fill="rgb(0,69,134)" stroke="none" d="M 1830,7675 L 1830,7925 2080,7925 2080,7675 1830,7675 Z"/>
 <path fill="none" stroke="rgb(0,69,134)" stroke-linejoin="round" d="M 1830,7675 L 1830,7925 2080,7925 2080,7675 1830,7675 Z"/>
 <path fill="rgb(0,69,134)" stroke="none" d="M 1813,7643 L 1813,7893 2063,7893 2063,7643 1813,7643 Z"/>
 <path fill="none" stroke="rgb(0,69,134)" stroke-linejoin="round" d="M 1813,7643 L 1813,7893 2063,7893 2063,7643 1813,7643 Z"/>
 <path fill="rgb(0,69,134)" stroke="none" d="M 1820,7610 L 1820,7860 2070,7860 2070,7610 1820,7610 Z"/>
 <path fill="none" stroke="rgb(0,69,134)" stroke-linejoin="round" d="M 1820,7610 L 1820,7860 2070,7860 2070,7610 1820,7610 Z"/>
 <path fill="rgb(0,69,134)" stroke="none" d="M 3647,7578 L 3647,7828 3897,7828 3897,7578 3647,7578 Z"/>
 <path fill="none" stroke="rgb(0,69,134)" stroke-linejoin="round" d="M 3647,7578 L 3647,7828 3897,7828 3897,7578 3647,7578 Z"/>
 <path fill="rgb(0,69,134)" stroke="none" d="M 10109,7545 L 10109,7795 10359,7795 10359,7545 10109,7545 Z"/>
 <path fill="none" stroke="rgb(0,69,134)" stroke-linejoin="round" d="M 10109,7545 L 10109,7795 10359,7795 10359,7545 10109,7545 Z"/>
 <path fill="rgb(0,69,134)" stroke="none" d="M 8339,7513 L 8339,7763 8589,7763 8589,7513 8339,7513 Z"/>
 <path fill="none" stroke="rgb(0,69,134)" stroke-linejoin="round" d="M 8339,7513 L 8339,7763 8589,7763 8589,7513 8339,7513 Z"/>
 <path fill="rgb(0,69,134)" stroke="none" d="M 2419,7480 L 2419,7730 2669,7730 2669,7480 2419,7480 Z"/>
 <path fill="none" stroke="rgb(0,69,134)" stroke-linejoin="round" d="M 2419,7480 L 2419,7730 2669,7730 2669,7480 2419,7480 Z"/>
 <path fill="rgb(0,69,134)" stroke="none" d="M 1859,7448 L 1859,7698 2109,7698 2109,7448 1859,7448 Z"/>
 <path fill="none" stroke="rgb(0,69,134)" stroke-linejoin="round" d="M 1859,7448 L 1859,7698 2109,7698 2109,7448 1859,7448 Z"/>
 <path fill="rgb(0,69,134)" stroke="none" d="M 1858,7415 L 1858,7665 2108,7665 2108,7415 1858,7415 Z"/>
 <path fill="none" stroke="rgb(0,69,134)" stroke-linejoin="round" d="M 1858,7415 L 1858,7665 2108,7665 2108,7415 1858,7415 Z"/>
 <path fill="rgb(0,69,134)" stroke="none" d="M 1866,7383 L 1866,7633 2116,7633 2116,7383 1866,7383 Z"/>
 <path fill="none" stroke="rgb(0,69,134)" stroke-linejoin="round" d="M 1866,7383 L 1866,7633 2116,7633 2116,7383 1866,7383 Z"/>
 <path fill="rgb(0,69,134)" stroke="none" d="M 1885,7351 L 1885,7601 2135,7601 2135,7351 1885,7351 Z"/>
 <path fill="none" stroke="rgb(0,69,134)" stroke-linejoin="round" d="M 1885,7351 L 1885,7601 2135,7601 2135,7351 1885,7351 Z"/>
 <path fill="rgb(0,69,134)" stroke="none" d="M 1898,7318 L 1898,7568 2148,7568 2148,7318 1898,7318 Z"/>
 <path fill="none" stroke="rgb(0,69,134)" stroke-linejoin="round" d="M 1898,7318 L 1898,7568 2148,7568 2148,7318 1898,7318 Z"/>
 <path fill="rgb(0,69,134)" stroke="none" d="M 1885,7286 L 1885,7536 2135,7536 2135,7286 1885,7286 Z"/>
 <path fill="none" stroke="rgb(0,69,134)" stroke-linejoin="round" d="M 1885,7286 L 1885,7536 2135,7536 2135,7286 1885,7286 Z"/>
 <path fill="rgb(0,69,134)" stroke="none" d="M 1891,7253 L 1891,7503 2141,7503 2141,7253 1891,7253 Z"/>
 <path fill="none" stroke="rgb(0,69,134)" stroke-linejoin="round" d="M 1891,7253 L 1891,7503 2141,7503 2141,7253 1891,7253 Z"/>
 <path fill="rgb(0,69,134)" stroke="none" d="M 1907,7221 L 1907,7471 2157,7471 2157,7221 1907,7221 Z"/>
 <path fill="none" stroke="rgb(0,69,134)" stroke-linejoin="round" d="M 1907,7221 L 1907,7471 2157,7471 2157,7221 1907,7221 Z"/>
 <path fill="rgb(0,69,134)" stroke="none" d="M 1912,7188 L 1912,7438 2162,7438 2162,7188 1912,7188 Z"/>
 <path fill="none" stroke="rgb(0,69,134)" stroke-linejoin="round" d="M 1912,7188 L 1912,7438 2162,7438 2162,7188 1912,7188 Z"/>
 <path fill="rgb(0,69,134)" stroke="none" d="M 1902,7156 L 1902,7406 2152,7406 2152,7156 1902,7156 Z"/>
 <path fill="none" stroke="rgb(0,69,134)" stroke-linejoin="round" d="M 1902,7156 L 1902,7406 2152,7406 2152,7156 1902,7156 Z"/>
 <path fill="rgb(0,69,134)" stroke="none" d="M 1900,7123 L 1900,7373 2150,7373 2150,7123 1900,7123 Z"/>
 <path fill="none" stroke="rgb(0,69,134)" stroke-linejoin="round" d="M 1900,7123 L 1900,7373 2150,7373 2150,7123 1900,7123 Z"/>
 <path fill="rgb(0,69,134)" stroke="none" d="M 1913,7091 L 1913,7341 2163,7341 2163,7091 1913,7091 Z"/>
 <path fill="none" stroke="rgb(0,69,134)" stroke-linejoin="round" d="M 1913,7091 L 1913,7341 2163,7341 2163,7091 1913,7091 Z"/>
 <path fill="rgb(0,69,134)" stroke="none" d="M 1942,7058 L 1942,7308 2192,7308 2192,7058 1942,7058 Z"/>
 <path fill="none" stroke="rgb(0,69,134)" stroke-linejoin="round" d="M 1942,7058 L 1942,7308 2192,7308 2192,7058 1942,7058 Z"/>
 <path fill="rgb(0,69,134)" stroke="none" d="M 1957,7026 L 1957,7276 2207,7276 2207,7026 1957,7026 Z"/>
 <path fill="none" stroke="rgb(0,69,134)" stroke-linejoin="round" d="M 1957,7026 L 1957,7276 2207,7276 2207,7026 1957,7026 Z"/>
 <path fill="rgb(0,69,134)" stroke="none" d="M 1958,6993 L 1958,7243 2208,7243 2208,6993 1958,6993 Z"/>
 <path fill="none" stroke="rgb(0,69,134)" stroke-linejoin="round" d="M 1958,6993 L 1958,7243 2208,7243 2208,6993 1958,6993 Z"/>
 <path fill="rgb(0,69,134)" stroke="none" d="M 1896,6961 L 1896,7211 2146,7211 2146,6961 1896,6961 Z"/>
 <path fill="none" stroke="rgb(0,69,134)" stroke-linejoin="round" d="M 1896,6961 L 1896,7211 2146,7211 2146,6961 1896,6961 Z"/>
 <path fill="rgb(0,69,134)" stroke="none" d="M 1885,6928 L 1885,7178 2135,7178 2135,6928 1885,6928 Z"/>
 <path fill="none" stroke="rgb(0,69,134)" stroke-linejoin="round" d="M 1885,6928 L 1885,7178 2135,7178 2135,6928 1885,6928 Z"/>
 <path fill="rgb(0,69,134)" stroke="none" d="M 1899,6896 L 1899,7146 2149,7146 2149,6896 1899,6896 Z"/>
 <path fill="none" stroke="rgb(0,69,134)" stroke-linejoin="round" d="M 1899,6896 L 1899,7146 2149,7146 2149,6896 1899,6896 Z"/>
 <path fill="rgb(0,69,134)" stroke="none" d="M 1921,6863 L 1921,7113 2171,7113 2171,6863 1921,6863 Z"/>
 <path fill="none" stroke="rgb(0,69,134)" stroke-linejoin="round" d="M 1921,6863 L 1921,7113 2171,7113 2171,6863 1921,6863 Z"/>
 <path fill="rgb(0,69,134)" stroke="none" d="M 1887,6831 L 1887,7081 2137,7081 2137,6831 1887,6831 Z"/>
 <path fill="none" stroke="rgb(0,69,134)" stroke-linejoin="round" d="M 1887,6831 L 1887,7081 2137,7081 2137,6831 1887,6831 Z"/>
 <path fill="rgb(0,69,134)" stroke="none" d="M 1902,6798 L 1902,7048 2152,7048 2152,6798 1902,6798 Z"/>
 <path fill="none" stroke="rgb(0,69,134)" stroke-linejoin="round" d="M 1902,6798 L 1902,7048 2152,7048 2152,6798 1902,6798 Z"/>
 <path fill="rgb(0,69,134)" stroke="none" d="M 1879,6766 L 1879,7016 2129,7016 2129,6766 1879,6766 Z"/>
 <path fill="none" stroke="rgb(0,69,134)" stroke-linejoin="round" d="M 1879,6766 L 1879,7016 2129,7016 2129,6766 1879,6766 Z"/>
 <path fill="rgb(0,69,134)" stroke="none" d="M 1880,6734 L 1880,6984 2130,6984 2130,6734 1880,6734 Z"/>
 <path fill="none" stroke="rgb(0,69,134)" stroke-linejoin="round" d="M 1880,6734 L 1880,6984 2130,6984 2130,6734 1880,6734 Z"/>
 <path fill="rgb(0,69,134)" stroke="none" d="M 1850,6701 L 1850,6951 2100,6951 2100,6701 1850,6701 Z"/>
 <path fill="none" stroke="rgb(0,69,134)" stroke-linejoin="round" d="M 1850,6701 L 1850,6951 2100,6951 2100,6701 1850,6701 Z"/>
 <path fill="rgb(0,69,134)" stroke="none" d="M 1846,6669 L 1846,6919 2096,6919 2096,6669 1846,6669 Z"/>
 <path fill="none" stroke="rgb(0,69,134)" stroke-linejoin="round" d="M 1846,6669 L 1846,6919 2096,6919 2096,6669 1846,6669 Z"/>
 <path fill="rgb(0,69,134)" stroke="none" d="M 1854,6636 L 1854,6886 2104,6886 2104,6636 1854,6636 Z"/>
 <path fill="none" stroke="rgb(0,69,134)" stroke-linejoin="round" d="M 1854,6636 L 1854,6886 2104,6886 2104,6636 1854,6636 Z"/>
 <path fill="rgb(0,69,134)" stroke="none" d="M 1866,6604 L 1866,6854 2116,6854 2116,6604 1866,6604 Z"/>
 <path fill="none" stroke="rgb(0,69,134)" stroke-linejoin="round" d="M 1866,6604 L 1866,6854 2116,6854 2116,6604 1866,6604 Z"/>
 <path fill="rgb(0,69,134)" stroke="none" d="M 1872,6571 L 1872,6821 2122,6821 2122,6571 1872,6571 Z"/>
 <path fill="none" stroke="rgb(0,69,134)" stroke-linejoin="round" d="M 1872,6571 L 1872,6821 2122,6821 2122,6571 1872,6571 Z"/>
 <path fill="rgb(0,69,134)" stroke="none" d="M 1886,6539 L 1886,6789 2136,6789 2136,6539 1886,6539 Z"/>
 <path fill="none" stroke="rgb(0,69,134)" stroke-linejoin="round" d="M 1886,6539 L 1886,6789 2136,6789 2136,6539 1886,6539 Z"/>
 <path fill="rgb(0,69,134)" stroke="none" d="M 1873,6506 L 1873,6756 2123,6756 2123,6506 1873,6506 Z"/>
 <path fill="none" stroke="rgb(0,69,134)" stroke-linejoin="round" d="M 1873,6506 L 1873,6756 2123,6756 2123,6506 1873,6506 Z"/>
 <path fill="rgb(0,69,134)" stroke="none" d="M 1859,6474 L 1859,6724 2109,6724 2109,6474 1859,6474 Z"/>
 <path fill="none" stroke="rgb(0,69,134)" stroke-linejoin="round" d="M 1859,6474 L 1859,6724 2109,6724 2109,6474 1859,6474 Z"/>
 <path fill="rgb(0,69,134)" stroke="none" d="M 1845,6441 L 1845,6691 2095,6691 2095,6441 1845,6441 Z"/>
 <path fill="none" stroke="rgb(0,69,134)" stroke-linejoin="round" d="M 1845,6441 L 1845,6691 2095,6691 2095,6441 1845,6441 Z"/>
 <path fill="rgb(0,69,134)" stroke="none" d="M 1838,6409 L 1838,6659 2088,6659 2088,6409 1838,6409 Z"/>
 <path fill="none" stroke="rgb(0,69,134)" stroke-linejoin="round" d="M 1838,6409 L 1838,6659 2088,6659 2088,6409 1838,6409 Z"/>
 <path fill="rgb(0,69,134)" stroke="none" d="M 1801,6376 L 1801,6626 2051,6626 2051,6376 1801,6376 Z"/>
 <path fill="none" stroke="rgb(0,69,134)" stroke-linejoin="round" d="M 1801,6376 L 1801,6626 2051,6626 2051,6376 1801,6376 Z"/>
 <path fill="rgb(0,69,134)" stroke="none" d="M 1841,6344 L 1841,6594 2091,6594 2091,6344 1841,6344 Z"/>
 <path fill="none" stroke="rgb(0,69,134)" stroke-linejoin="round" d="M 1841,6344 L 1841,6594 2091,6594 2091,6344 1841,6344 Z"/>
 <path fill="rgb(0,69,134)" stroke="none" d="M 1815,6311 L 1815,6561 2065,6561 2065,6311 1815,6311 Z"/>
 <path fill="none" stroke="rgb(0,69,134)" stroke-linejoin="round" d="M 1815,6311 L 1815,6561 2065,6561 2065,6311 1815,6311 Z"/>
 <path fill="rgb(0,69,134)" stroke="none" d="M 1823,6279 L 1823,6529 2073,6529 2073,6279 1823,6279 Z"/>
 <path fill="none" stroke="rgb(0,69,134)" stroke-linejoin="round" d="M 1823,6279 L 1823,6529 2073,6529 2073,6279 1823,6279 Z"/>
 <path fill="rgb(0,69,134)" stroke="none" d="M 1820,6246 L 1820,6496 2070,6496 2070,6246 1820,6246 Z"/>
 <path fill="none" stroke="rgb(0,69,134)" stroke-linejoin="round" d="M 1820,6246 L 1820,6496 2070,6496 2070,6246 1820,6246 Z"/>
 <path fill="rgb(0,69,134)" stroke="none" d="M 1826,6214 L 1826,6464 2076,6464 2076,6214 1826,6214 Z"/>
 <path fill="none" stroke="rgb(0,69,134)" stroke-linejoin="round" d="M 1826,6214 L 1826,6464 2076,6464 2076,6214 1826,6214 Z"/>
 <path fill="rgb(0,69,134)" stroke="none" d="M 1819,6181 L 1819,6431 2069,6431 2069,6181 1819,6181 Z"/>
 <path fill="none" stroke="rgb(0,69,134)" stroke-linejoin="round" d="M 1819,6181 L 1819,6431 2069,6431 2069,6181 1819,6181 Z"/>
 <path fill="rgb(0,69,134)" stroke="none" d="M 1838,6149 L 1838,6399 2088,6399 2088,6149 1838,6149 Z"/>
 <path fill="none" stroke="rgb(0,69,134)" stroke-linejoin="round" d="M 1838,6149 L 1838,6399 2088,6399 2088,6149 1838,6149 Z"/>
 <path fill="rgb(0,69,134)" stroke="none" d="M 1831,6116 L 1831,6366 2081,6366 2081,6116 1831,6116 Z"/>
 <path fill="none" stroke="rgb(0,69,134)" stroke-linejoin="round" d="M 1831,6116 L 1831,6366 2081,6366 2081,6116 1831,6116 Z"/>
 <path fill="rgb(0,69,134)" stroke="none" d="M 1818,6084 L 1818,6334 2068,6334 2068,6084 1818,6084 Z"/>
 <path fill="none" stroke="rgb(0,69,134)" stroke-linejoin="round" d="M 1818,6084 L 1818,6334 2068,6334 2068,6084 1818,6084 Z"/>
 <path fill="rgb(0,69,134)" stroke="none" d="M 1823,6052 L 1823,6302 2073,6302 2073,6052 1823,6052 Z"/>
 <path fill="none" stroke="rgb(0,69,134)" stroke-linejoin="round" d="M 1823,6052 L 1823,6302 2073,6302 2073,6052 1823,6052 Z"/>
 <path fill="rgb(0,69,134)" stroke="none" d="M 1832,6019 L 1832,6269 2082,6269 2082,6019 1832,6019 Z"/>
 <path fill="none" stroke="rgb(0,69,134)" stroke-linejoin="round" d="M 1832,6019 L 1832,6269 2082,6269 2082,6019 1832,6019 Z"/>
 <path fill="rgb(0,69,134)" stroke="none" d="M 1838,5987 L 1838,6237 2088,6237 2088,5987 1838,5987 Z"/>
 <path fill="none" stroke="rgb(0,69,134)" stroke-linejoin="round" d="M 1838,5987 L 1838,6237 2088,6237 2088,5987 1838,5987 Z"/>
 <path fill="rgb(0,69,134)" stroke="none" d="M 1819,5954 L 1819,6204 2069,6204 2069,5954 1819,5954 Z"/>
 <path fill="none" stroke="rgb(0,69,134)" stroke-linejoin="round" d="M 1819,5954 L 1819,6204 2069,6204 2069,5954 1819,5954 Z"/>
 <path fill="rgb(0,69,134)" stroke="none" d="M 1787,5922 L 1787,6172 2037,6172 2037,5922 1787,5922 Z"/>
 <path fill="none" stroke="rgb(0,69,134)" stroke-linejoin="round" d="M 1787,5922 L 1787,6172 2037,6172 2037,5922 1787,5922 Z"/>
 <path fill="rgb(0,69,134)" stroke="none" d="M 1774,5889 L 1774,6139 2024,6139 2024,5889 1774,5889 Z"/>
 <path fill="none" stroke="rgb(0,69,134)" stroke-linejoin="round" d="M 1774,5889 L 1774,6139 2024,6139 2024,5889 1774,5889 Z"/>
 <path fill="rgb(0,69,134)" stroke="none" d="M 1773,5857 L 1773,6107 2023,6107 2023,5857 1773,5857 Z"/>
 <path fill="none" stroke="rgb(0,69,134)" stroke-linejoin="round" d="M 1773,5857 L 1773,6107 2023,6107 2023,5857 1773,5857 Z"/>
 <path fill="rgb(0,69,134)" stroke="none" d="M 1803,5824 L 1803,6074 2053,6074 2053,5824 1803,5824 Z"/>
 <path fill="none" stroke="rgb(0,69,134)" stroke-linejoin="round" d="M 1803,5824 L 1803,6074 2053,6074 2053,5824 1803,5824 Z"/>
 <path fill="rgb(0,69,134)" stroke="none" d="M 5125,5792 L 5125,6042 5375,6042 5375,5792 5125,5792 Z"/>
 <path fill="none" stroke="rgb(0,69,134)" stroke-linejoin="round" d="M 5125,5792 L 5125,6042 5375,6042 5375,5792 5125,5792 Z"/>
 <path fill="rgb(0,69,134)" stroke="none" d="M 10984,5759 L 10984,6009 11234,6009 11234,5759 10984,5759 Z"/>
 <path fill="none" stroke="rgb(0,69,134)" stroke-linejoin="round" d="M 10984,5759 L 10984,6009 11234,6009 11234,5759 10984,5759 Z"/>
 <path fill="rgb(0,69,134)" stroke="none" d="M 6458,5727 L 6458,5977 6708,5977 6708,5727 6458,5727 Z"/>
 <path fill="none" stroke="rgb(0,69,134)" stroke-linejoin="round" d="M 6458,5727 L 6458,5977 6708,5977 6708,5727 6458,5727 Z"/>
 <path fill="rgb(0,69,134)" stroke="none" d="M 1849,5694 L 1849,5944 2099,5944 2099,5694 1849,5694 Z"/>
 <path fill="none" stroke="rgb(0,69,134)" stroke-linejoin="round" d="M 1849,5694 L 1849,5944 2099,5944 2099,5694 1849,5694 Z"/>
 <path fill="rgb(0,69,134)" stroke="none" d="M 1821,5662 L 1821,5912 2071,5912 2071,5662 1821,5662 Z"/>
 <path fill="none" stroke="rgb(0,69,134)" stroke-linejoin="round" d="M 1821,5662 L 1821,5912 2071,5912 2071,5662 1821,5662 Z"/>
 <path fill="rgb(0,69,134)" stroke="none" d="M 1830,5629 L 1830,5879 2080,5879 2080,5629 1830,5629 Z"/>
 <path fill="none" stroke="rgb(0,69,134)" stroke-linejoin="round" d="M 1830,5629 L 1830,5879 2080,5879 2080,5629 1830,5629 Z"/>
 <path fill="rgb(0,69,134)" stroke="none" d="M 1856,5597 L 1856,5847 2106,5847 2106,5597 1856,5597 Z"/>
 <path fill="none" stroke="rgb(0,69,134)" stroke-linejoin="round" d="M 1856,5597 L 1856,5847 2106,5847 2106,5597 1856,5597 Z"/>
 <path fill="rgb(0,69,134)" stroke="none" d="M 1870,5564 L 1870,5814 2120,5814 2120,5564 1870,5564 Z"/>
 <path fill="none" stroke="rgb(0,69,134)" stroke-linejoin="round" d="M 1870,5564 L 1870,5814 2120,5814 2120,5564 1870,5564 Z"/>
 <path fill="rgb(0,69,134)" stroke="none" d="M 1882,5532 L 1882,5782 2132,5782 2132,5532 1882,5532 Z"/>
 <path fill="none" stroke="rgb(0,69,134)" stroke-linejoin="round" d="M 1882,5532 L 1882,5782 2132,5782 2132,5532 1882,5532 Z"/>
 <path fill="rgb(0,69,134)" stroke="none" d="M 1882,5499 L 1882,5749 2132,5749 2132,5499 1882,5499 Z"/>
 <path fill="none" stroke="rgb(0,69,134)" stroke-linejoin="round" d="M 1882,5499 L 1882,5749 2132,5749 2132,5499 1882,5499 Z"/>
 <path fill="rgb(0,69,134)" stroke="none" d="M 1891,5467 L 1891,5717 2141,5717 2141,5467 1891,5467 Z"/>
 <path fill="none" stroke="rgb(0,69,134)" stroke-linejoin="round" d="M 1891,5467 L 1891,5717 2141,5717 2141,5467 1891,5467 Z"/>
 <path fill="rgb(0,69,134)" stroke="none" d="M 1915,5435 L 1915,5685 2165,5685 2165,5435 1915,5435 Z"/>
 <path fill="none" stroke="rgb(0,69,134)" stroke-linejoin="round" d="M 1915,5435 L 1915,5685 2165,5685 2165,5435 1915,5435 Z"/>
 <path fill="rgb(0,69,134)" stroke="none" d="M 1896,5402 L 1896,5652 2146,5652 2146,5402 1896,5402 Z"/>
 <path fill="none" stroke="rgb(0,69,134)" stroke-linejoin="round" d="M 1896,5402 L 1896,5652 2146,5652 2146,5402 1896,5402 Z"/>
 <path fill="rgb(0,69,134)" stroke="none" d="M 1904,5370 L 1904,5620 2154,5620 2154,5370 1904,5370 Z"/>
 <path fill="none" stroke="rgb(0,69,134)" stroke-linejoin="round" d="M 1904,5370 L 1904,5620 2154,5620 2154,5370 1904,5370 Z"/>
 <path fill="rgb(0,69,134)" stroke="none" d="M 1891,5337 L 1891,5587 2141,5587 2141,5337 1891,5337 Z"/>
 <path fill="none" stroke="rgb(0,69,134)" stroke-linejoin="round" d="M 1891,5337 L 1891,5587 2141,5587 2141,5337 1891,5337 Z"/>
 <path fill="rgb(0,69,134)" stroke="none" d="M 1949,5305 L 1949,5555 2199,5555 2199,5305 1949,5305 Z"/>
 <path fill="none" stroke="rgb(0,69,134)" stroke-linejoin="round" d="M 1949,5305 L 1949,5555 2199,5555 2199,5305 1949,5305 Z"/>
 <path fill="rgb(0,69,134)" stroke="none" d="M 1950,5272 L 1950,5522 2200,5522 2200,5272 1950,5272 Z"/>
 <path fill="none" stroke="rgb(0,69,134)" stroke-linejoin="round" d="M 1950,5272 L 1950,5522 2200,5522 2200,5272 1950,5272 Z"/>
 <path fill="rgb(0,69,134)" stroke="none" d="M 1963,5240 L 1963,5490 2213,5490 2213,5240 1963,5240 Z"/>
 <path fill="none" stroke="rgb(0,69,134)" stroke-linejoin="round" d="M 1963,5240 L 1963,5490 2213,5490 2213,5240 1963,5240 Z"/>
 <path fill="rgb(0,69,134)" stroke="none" d="M 1930,5207 L 1930,5457 2180,5457 2180,5207 1930,5207 Z"/>
 <path fill="none" stroke="rgb(0,69,134)" stroke-linejoin="round" d="M 1930,5207 L 1930,5457 2180,5457 2180,5207 1930,5207 Z"/>
 <path fill="rgb(0,69,134)" stroke="none" d="M 1909,5175 L 1909,5425 2159,5425 2159,5175 1909,5175 Z"/>
 <path fill="none" stroke="rgb(0,69,134)" stroke-linejoin="round" d="M 1909,5175 L 1909,5425 2159,5425 2159,5175 1909,5175 Z"/>
 <path fill="rgb(0,69,134)" stroke="none" d="M 1903,5142 L 1903,5392 2153,5392 2153,5142 1903,5142 Z"/>
 <path fill="none" stroke="rgb(0,69,134)" stroke-linejoin="round" d="M 1903,5142 L 1903,5392 2153,5392 2153,5142 1903,5142 Z"/>
 <path fill="rgb(0,69,134)" stroke="none" d="M 1918,5110 L 1918,5360 2168,5360 2168,5110 1918,5110 Z"/>
 <path fill="none" stroke="rgb(0,69,134)" stroke-linejoin="round" d="M 1918,5110 L 1918,5360 2168,5360 2168,5110 1918,5110 Z"/>
 <path fill="rgb(0,69,134)" stroke="none" d="M 1929,5077 L 1929,5327 2179,5327 2179,5077 1929,5077 Z"/>
 <path fill="none" stroke="rgb(0,69,134)" stroke-linejoin="round" d="M 1929,5077 L 1929,5327 2179,5327 2179,5077 1929,5077 Z"/>
 <path fill="rgb(0,69,134)" stroke="none" d="M 1920,5045 L 1920,5295 2170,5295 2170,5045 1920,5045 Z"/>
 <path fill="none" stroke="rgb(0,69,134)" stroke-linejoin="round" d="M 1920,5045 L 1920,5295 2170,5295 2170,5045 1920,5045 Z"/>
 <path fill="rgb(0,69,134)" stroke="none" d="M 1928,5012 L 1928,5262 2178,5262 2178,5012 1928,5012 Z"/>
 <path fill="none" stroke="rgb(0,69,134)" stroke-linejoin="round" d="M 1928,5012 L 1928,5262 2178,5262 2178,5012 1928,5012 Z"/>
 <path fill="rgb(0,69,134)" stroke="none" d="M 1905,4980 L 1905,5230 2155,5230 2155,4980 1905,4980 Z"/>
 <path fill="none" stroke="rgb(0,69,134)" stroke-linejoin="round" d="M 1905,4980 L 1905,5230 2155,5230 2155,4980 1905,4980 Z"/>
 <path fill="rgb(0,69,134)" stroke="none" d="M 1895,4947 L 1895,5197 2145,5197 2145,4947 1895,4947 Z"/>
 <path fill="none" stroke="rgb(0,69,134)" stroke-linejoin="round" d="M 1895,4947 L 1895,5197 2145,5197 2145,4947 1895,4947 Z"/>
 <path fill="rgb(0,69,134)" stroke="none" d="M 1868,4915 L 1868,5165 2118,5165 2118,4915 1868,4915 Z"/>
 <path fill="none" stroke="rgb(0,69,134)" stroke-linejoin="round" d="M 1868,4915 L 1868,5165 2118,5165 2118,4915 1868,4915 Z"/>
 <path fill="rgb(0,69,134)" stroke="none" d="M 1872,4882 L 1872,5132 2122,5132 2122,4882 1872,4882 Z"/>
 <path fill="none" stroke="rgb(0,69,134)" stroke-linejoin="round" d="M 1872,4882 L 1872,5132 2122,5132 2122,4882 1872,4882 Z"/>
 <path fill="rgb(0,69,134)" stroke="none" d="M 1886,4850 L 1886,5100 2136,5100 2136,4850 1886,4850 Z"/>
 <path fill="none" stroke="rgb(0,69,134)" stroke-linejoin="round" d="M 1886,4850 L 1886,5100 2136,5100 2136,4850 1886,4850 Z"/>
 <path fill="rgb(0,69,134)" stroke="none" d="M 1874,4817 L 1874,5067 2124,5067 2124,4817 1874,4817 Z"/>
 <path fill="none" stroke="rgb(0,69,134)" stroke-linejoin="round" d="M 1874,4817 L 1874,5067 2124,5067 2124,4817 1874,4817 Z"/>
 <path fill="rgb(0,69,134)" stroke="none" d="M 1874,4785 L 1874,5035 2124,5035 2124,4785 1874,4785 Z"/>
 <path fill="none" stroke="rgb(0,69,134)" stroke-linejoin="round" d="M 1874,4785 L 1874,5035 2124,5035 2124,4785 1874,4785 Z"/>
 <path fill="rgb(0,69,134)" stroke="none" d="M 1870,4753 L 1870,5003 2120,5003 2120,4753 1870,4753 Z"/>
 <path fill="none" stroke="rgb(0,69,134)" stroke-linejoin="round" d="M 1870,4753 L 1870,5003 2120,5003 2120,4753 1870,4753 Z"/>
 <path fill="rgb(0,69,134)" stroke="none" d="M 1856,4720 L 1856,4970 2106,4970 2106,4720 1856,4720 Z"/>
 <path fill="none" stroke="rgb(0,69,134)" stroke-linejoin="round" d="M 1856,4720 L 1856,4970 2106,4970 2106,4720 1856,4720 Z"/>
 <path fill="rgb(0,69,134)" stroke="none" d="M 1837,4688 L 1837,4938 2087,4938 2087,4688 1837,4688 Z"/>
 <path fill="none" stroke="rgb(0,69,134)" stroke-linejoin="round" d="M 1837,4688 L 1837,4938 2087,4938 2087,4688 1837,4688 Z"/>
 <path fill="rgb(0,69,134)" stroke="none" d="M 1867,4655 L 1867,4905 2117,4905 2117,4655 1867,4655 Z"/>
 <path fill="none" stroke="rgb(0,69,134)" stroke-linejoin="round" d="M 1867,4655 L 1867,4905 2117,4905 2117,4655 1867,4655 Z"/>
 <path fill="rgb(0,69,134)" stroke="none" d="M 1846,4623 L 1846,4873 2096,4873 2096,4623 1846,4623 Z"/>
 <path fill="none" stroke="rgb(0,69,134)" stroke-linejoin="round" d="M 1846,4623 L 1846,4873 2096,4873 2096,4623 1846,4623 Z"/>
 <path fill="rgb(0,69,134)" stroke="none" d="M 1830,4590 L 1830,4840 2080,4840 2080,4590 1830,4590 Z"/>
 <path fill="none" stroke="rgb(0,69,134)" stroke-linejoin="round" d="M 1830,4590 L 1830,4840 2080,4840 2080,4590 1830,4590 Z"/>
 <path fill="rgb(0,69,134)" stroke="none" d="M 1821,4558 L 1821,4808 2071,4808 2071,4558 1821,4558 Z"/>
 <path fill="none" stroke="rgb(0,69,134)" stroke-linejoin="round" d="M 1821,4558 L 1821,4808 2071,4808 2071,4558 1821,4558 Z"/>
 <path fill="rgb(0,69,134)" stroke="none" d="M 1848,4525 L 1848,4775 2098,4775 2098,4525 1848,4525 Z"/>
 <path fill="none" stroke="rgb(0,69,134)" stroke-linejoin="round" d="M 1848,4525 L 1848,4775 2098,4775 2098,4525 1848,4525 Z"/>
 <path fill="rgb(0,69,134)" stroke="none" d="M 1839,4493 L 1839,4743 2089,4743 2089,4493 1839,4493 Z"/>
 <path fill="none" stroke="rgb(0,69,134)" stroke-linejoin="round" d="M 1839,4493 L 1839,4743 2089,4743 2089,4493 1839,4493 Z"/>
 <path fill="rgb(0,69,134)" stroke="none" d="M 1850,4461 L 1850,4710 2100,4710 2100,4461 1850,4461 Z"/>
 <path fill="none" stroke="rgb(0,69,134)" stroke-linejoin="round" d="M 1850,4461 L 1850,4710 2100,4710 2100,4461 1850,4461 Z"/>
 <path fill="rgb(0,69,134)" stroke="none" d="M 1844,4429 L 1844,4678 2094,4678 2094,4429 1844,4429 Z"/>
 <path fill="none" stroke="rgb(0,69,134)" stroke-linejoin="round" d="M 1844,4429 L 1844,4678 2094,4678 2094,4429 1844,4429 Z"/>
 <path fill="rgb(0,69,134)" stroke="none" d="M 1845,4396 L 1845,4645 2095,4645 2095,4396 1845,4396 Z"/>
 <path fill="none" stroke="rgb(0,69,134)" stroke-linejoin="round" d="M 1845,4396 L 1845,4645 2095,4645 2095,4396 1845,4396 Z"/>
 <path fill="rgb(0,69,134)" stroke="none" d="M 1844,4364 L 1844,4613 2094,4613 2094,4364 1844,4364 Z"/>
 <path fill="none" stroke="rgb(0,69,134)" stroke-linejoin="round" d="M 1844,4364 L 1844,4613 2094,4613 2094,4364 1844,4364 Z"/>
 <path fill="rgb(0,69,134)" stroke="none" d="M 1858,4331 L 1858,4580 2108,4580 2108,4331 1858,4331 Z"/>
 <path fill="none" stroke="rgb(0,69,134)" stroke-linejoin="round" d="M 1858,4331 L 1858,4580 2108,4580 2108,4331 1858,4331 Z"/>
 <path fill="rgb(0,69,134)" stroke="none" d="M 1854,4299 L 1854,4548 2104,4548 2104,4299 1854,4299 Z"/>
 <path fill="none" stroke="rgb(0,69,134)" stroke-linejoin="round" d="M 1854,4299 L 1854,4548 2104,4548 2104,4299 1854,4299 Z"/>
 <path fill="rgb(0,69,134)" stroke="none" d="M 1865,4266 L 1865,4515 2115,4515 2115,4266 1865,4266 Z"/>
 <path fill="none" stroke="rgb(0,69,134)" stroke-linejoin="round" d="M 1865,4266 L 1865,4515 2115,4515 2115,4266 1865,4266 Z"/>
 <path fill="rgb(0,69,134)" stroke="none" d="M 1860,4234 L 1860,4484 2110,4484 2110,4234 1860,4234 Z"/>
 <path fill="none" stroke="rgb(0,69,134)" stroke-linejoin="round" d="M 1860,4234 L 1860,4484 2110,4484 2110,4234 1860,4234 Z"/>
 <path fill="rgb(0,69,134)" stroke="none" d="M 1874,4201 L 1874,4451 2124,4451 2124,4201 1874,4201 Z"/>
 <path fill="none" stroke="rgb(0,69,134)" stroke-linejoin="round" d="M 1874,4201 L 1874,4451 2124,4451 2124,4201 1874,4201 Z"/>
 <path fill="rgb(0,69,134)" stroke="none" d="M 1855,4169 L 1855,4419 2105,4419 2105,4169 1855,4169 Z"/>
 <path fill="none" stroke="rgb(0,69,134)" stroke-linejoin="round" d="M 1855,4169 L 1855,4419 2105,4419 2105,4169 1855,4169 Z"/>
 <path fill="rgb(0,69,134)" stroke="none" d="M 1839,4137 L 1839,4387 2089,4387 2089,4137 1839,4137 Z"/>
 <path fill="none" stroke="rgb(0,69,134)" stroke-linejoin="round" d="M 1839,4137 L 1839,4387 2089,4387 2089,4137 1839,4137 Z"/>
 <path fill="rgb(0,69,134)" stroke="none" d="M 1842,4104 L 1842,4354 2092,4354 2092,4104 1842,4104 Z"/>
 <path fill="none" stroke="rgb(0,69,134)" stroke-linejoin="round" d="M 1842,4104 L 1842,4354 2092,4354 2092,4104 1842,4104 Z"/>
 <path fill="rgb(0,69,134)" stroke="none" d="M 1854,4072 L 1854,4322 2104,4322 2104,4072 1854,4072 Z"/>
 <path fill="none" stroke="rgb(0,69,134)" stroke-linejoin="round" d="M 1854,4072 L 1854,4322 2104,4322 2104,4072 1854,4072 Z"/>
 <path fill="rgb(0,69,134)" stroke="none" d="M 1942,4039 L 1942,4289 2192,4289 2192,4039 1942,4039 Z"/>
 <path fill="none" stroke="rgb(0,69,134)" stroke-linejoin="round" d="M 1942,4039 L 1942,4289 2192,4289 2192,4039 1942,4039 Z"/>
 <path fill="rgb(0,69,134)" stroke="none" d="M 6267,4007 L 6267,4257 6517,4257 6517,4007 6267,4007 Z"/>
 <path fill="none" stroke="rgb(0,69,134)" stroke-linejoin="round" d="M 6267,4007 L 6267,4257 6517,4257 6517,4007 6267,4007 Z"/>
 <path fill="rgb(0,69,134)" stroke="none" d="M 11262,3974 L 11262,4224 11512,4224 11512,3974 11262,3974 Z"/>
 <path fill="none" stroke="rgb(0,69,134)" stroke-linejoin="round" d="M 11262,3974 L 11262,4224 11512,4224 11512,3974 11262,3974 Z"/>
 <path fill="rgb(0,69,134)" stroke="none" d="M 5581,3942 L 5581,4192 5831,4192 5831,3942 5581,3942 Z"/>
 <path fill="none" stroke="rgb(0,69,134)" stroke-linejoin="round" d="M 5581,3942 L 5581,4192 5831,4192 5831,3942 5581,3942 Z"/>
 <path fill="rgb(0,69,134)" stroke="none" d="M 1878,3909 L 1878,4159 2128,4159 2128,3909 1878,3909 Z"/>
 <path fill="none" stroke="rgb(0,69,134)" stroke-linejoin="round" d="M 1878,3909 L 1878,4159 2128,4159 2128,3909 1878,3909 Z"/>
 <path fill="rgb(0,69,134)" stroke="none" d="M 1894,3877 L 1894,4127 2144,4127 2144,3877 1894,3877 Z"/>
 <path fill="none" stroke="rgb(0,69,134)" stroke-linejoin="round" d="M 1894,3877 L 1894,4127 2144,4127 2144,3877 1894,3877 Z"/>
 <path fill="rgb(0,69,134)" stroke="none" d="M 1897,3844 L 1897,4094 2147,4094 2147,3844 1897,3844 Z"/>
 <path fill="none" stroke="rgb(0,69,134)" stroke-linejoin="round" d="M 1897,3844 L 1897,4094 2147,4094 2147,3844 1897,3844 Z"/>
 <path fill="rgb(0,69,134)" stroke="none" d="M 1915,3812 L 1915,4062 2165,4062 2165,3812 1915,3812 Z"/>
 <path fill="none" stroke="rgb(0,69,134)" stroke-linejoin="round" d="M 1915,3812 L 1915,4062 2165,4062 2165,3812 1915,3812 Z"/>
 <path fill="rgb(0,69,134)" stroke="none" d="M 1939,3779 L 1939,4029 2189,4029 2189,3779 1939,3779 Z"/>
 <path fill="none" stroke="rgb(0,69,134)" stroke-linejoin="round" d="M 1939,3779 L 1939,4029 2189,4029 2189,3779 1939,3779 Z"/>
 <path fill="rgb(0,69,134)" stroke="none" d="M 1956,3747 L 1956,3997 2206,3997 2206,3747 1956,3747 Z"/>
 <path fill="none" stroke="rgb(0,69,134)" stroke-linejoin="round" d="M 1956,3747 L 1956,3997 2206,3997 2206,3747 1956,3747 Z"/>
 <path fill="rgb(0,69,134)" stroke="none" d="M 1956,3714 L 1956,3964 2206,3964 2206,3714 1956,3714 Z"/>
 <path fill="none" stroke="rgb(0,69,134)" stroke-linejoin="round" d="M 1956,3714 L 1956,3964 2206,3964 2206,3714 1956,3714 Z"/>
 <path fill="rgb(0,69,134)" stroke="none" d="M 2000,3682 L 2000,3932 2250,3932 2250,3682 2000,3682 Z"/>
 <path fill="none" stroke="rgb(0,69,134)" stroke-linejoin="round" d="M 2000,3682 L 2000,3932 2250,3932 2250,3682 2000,3682 Z"/>
 <path fill="rgb(0,69,134)" stroke="none" d="M 2002,3649 L 2002,3899 2252,3899 2252,3649 2002,3649 Z"/>
 <path fill="none" stroke="rgb(0,69,134)" stroke-linejoin="round" d="M 2002,3649 L 2002,3899 2252,3899 2252,3649 2002,3649 Z"/>
 <path fill="rgb(0,69,134)" stroke="none" d="M 2019,3617 L 2019,3867 2269,3867 2269,3617 2019,3617 Z"/>
 <path fill="none" stroke="rgb(0,69,134)" stroke-linejoin="round" d="M 2019,3617 L 2019,3867 2269,3867 2269,3617 2019,3617 Z"/>
 <path fill="rgb(0,69,134)" stroke="none" d="M 2000,3584 L 2000,3834 2250,3834 2250,3584 2000,3584 Z"/>
 <path fill="none" stroke="rgb(0,69,134)" stroke-linejoin="round" d="M 2000,3584 L 2000,3834 2250,3834 2250,3584 2000,3584 Z"/>
 <path fill="rgb(0,69,134)" stroke="none" d="M 2012,3552 L 2012,3802 2262,3802 2262,3552 2012,3552 Z"/>
 <path fill="none" stroke="rgb(0,69,134)" stroke-linejoin="round" d="M 2012,3552 L 2012,3802 2262,3802 2262,3552 2012,3552 Z"/>
 <path fill="rgb(0,69,134)" stroke="none" d="M 2025,3519 L 2025,3769 2275,3769 2275,3519 2025,3519 Z"/>
 <path fill="none" stroke="rgb(0,69,134)" stroke-linejoin="round" d="M 2025,3519 L 2025,3769 2275,3769 2275,3519 2025,3519 Z"/>
 <path fill="rgb(0,69,134)" stroke="none" d="M 2067,3487 L 2067,3737 2317,3737 2317,3487 2067,3487 Z"/>
 <path fill="none" stroke="rgb(0,69,134)" stroke-linejoin="round" d="M 2067,3487 L 2067,3737 2317,3737 2317,3487 2067,3487 Z"/>
 <path fill="rgb(0,69,134)" stroke="none" d="M 2071,3455 L 2071,3705 2321,3705 2321,3455 2071,3455 Z"/>
 <path fill="none" stroke="rgb(0,69,134)" stroke-linejoin="round" d="M 2071,3455 L 2071,3705 2321,3705 2321,3455 2071,3455 Z"/>
 <path fill="rgb(0,69,134)" stroke="none" d="M 2064,3422 L 2064,3672 2314,3672 2314,3422 2064,3422 Z"/>
 <path fill="none" stroke="rgb(0,69,134)" stroke-linejoin="round" d="M 2064,3422 L 2064,3672 2314,3672 2314,3422 2064,3422 Z"/>
 <path fill="rgb(0,69,134)" stroke="none" d="M 2053,3390 L 2053,3640 2303,3640 2303,3390 2053,3390 Z"/>
 <path fill="none" stroke="rgb(0,69,134)" stroke-linejoin="round" d="M 2053,3390 L 2053,3640 2303,3640 2303,3390 2053,3390 Z"/>
 <path fill="rgb(0,69,134)" stroke="none" d="M 2063,3357 L 2063,3607 2313,3607 2313,3357 2063,3357 Z"/>
 <path fill="none" stroke="rgb(0,69,134)" stroke-linejoin="round" d="M 2063,3357 L 2063,3607 2313,3607 2313,3357 2063,3357 Z"/>
 <path fill="rgb(0,69,134)" stroke="none" d="M 2076,3325 L 2076,3575 2326,3575 2326,3325 2076,3325 Z"/>
 <path fill="none" stroke="rgb(0,69,134)" stroke-linejoin="round" d="M 2076,3325 L 2076,3575 2326,3575 2326,3325 2076,3325 Z"/>
 <path fill="rgb(0,69,134)" stroke="none" d="M 2082,3292 L 2082,3542 2332,3542 2332,3292 2082,3292 Z"/>
 <path fill="none" stroke="rgb(0,69,134)" stroke-linejoin="round" d="M 2082,3292 L 2082,3542 2332,3542 2332,3292 2082,3292 Z"/>
 <path fill="rgb(0,69,134)" stroke="none" d="M 1988,3260 L 1988,3510 2238,3510 2238,3260 1988,3260 Z"/>
 <path fill="none" stroke="rgb(0,69,134)" stroke-linejoin="round" d="M 1988,3260 L 1988,3510 2238,3510 2238,3260 1988,3260 Z"/>
 <path fill="rgb(0,69,134)" stroke="none" d="M 1938,3227 L 1938,3477 2188,3477 2188,3227 1938,3227 Z"/>
 <path fill="none" stroke="rgb(0,69,134)" stroke-linejoin="round" d="M 1938,3227 L 1938,3477 2188,3477 2188,3227 1938,3227 Z"/>
 <path fill="rgb(0,69,134)" stroke="none" d="M 1898,3195 L 1898,3445 2148,3445 2148,3195 1898,3195 Z"/>
 <path fill="none" stroke="rgb(0,69,134)" stroke-linejoin="round" d="M 1898,3195 L 1898,3445 2148,3445 2148,3195 1898,3195 Z"/>
 <path fill="rgb(0,69,134)" stroke="none" d="M 1838,3162 L 1838,3412 2088,3412 2088,3162 1838,3162 Z"/>
 <path fill="none" stroke="rgb(0,69,134)" stroke-linejoin="round" d="M 1838,3162 L 1838,3412 2088,3412 2088,3162 1838,3162 Z"/>
 <path fill="rgb(0,69,134)" stroke="none" d="M 1838,3130 L 1838,3380 2088,3380 2088,3130 1838,3130 Z"/>
 <path fill="none" stroke="rgb(0,69,134)" stroke-linejoin="round" d="M 1838,3130 L 1838,3380 2088,3380 2088,3130 1838,3130 Z"/>
 <path fill="rgb(0,69,134)" stroke="none" d="M 1876,3097 L 1876,3347 2126,3347 2126,3097 1876,3097 Z"/>
 <path fill="none" stroke="rgb(0,69,134)" stroke-linejoin="round" d="M 1876,3097 L 1876,3347 2126,3347 2126,3097 1876,3097 Z"/>
 <path fill="rgb(0,69,134)" stroke="none" d="M 1888,3065 L 1888,3315 2138,3315 2138,3065 1888,3065 Z"/>
 <path fill="none" stroke="rgb(0,69,134)" stroke-linejoin="round" d="M 1888,3065 L 1888,3315 2138,3315 2138,3065 1888,3065 Z"/>
 <path fill="rgb(0,69,134)" stroke="none" d="M 1923,3032 L 1923,3282 2173,3282 2173,3032 1923,3032 Z"/>
 <path fill="none" stroke="rgb(0,69,134)" stroke-linejoin="round" d="M 1923,3032 L 1923,3282 2173,3282 2173,3032 1923,3032 Z"/>
 <path fill="rgb(0,69,134)" stroke="none" d="M 1909,3000 L 1909,3250 2159,3250 2159,3000 1909,3000 Z"/>
 <path fill="none" stroke="rgb(0,69,134)" stroke-linejoin="round" d="M 1909,3000 L 1909,3250 2159,3250 2159,3000 1909,3000 Z"/>
 <path fill="rgb(0,69,134)" stroke="none" d="M 1921,2967 L 1921,3217 2171,3217 2171,2967 1921,2967 Z"/>
 <path fill="none" stroke="rgb(0,69,134)" stroke-linejoin="round" d="M 1921,2967 L 1921,3217 2171,3217 2171,2967 1921,2967 Z"/>
 <path fill="rgb(0,69,134)" stroke="none" d="M 1897,2935 L 1897,3185 2147,3185 2147,2935 1897,2935 Z"/>
 <path fill="none" stroke="rgb(0,69,134)" stroke-linejoin="round" d="M 1897,2935 L 1897,3185 2147,3185 2147,2935 1897,2935 Z"/>
 <path fill="rgb(0,69,134)" stroke="none" d="M 1910,2902 L 1910,3152 2160,3152 2160,2902 1910,2902 Z"/>
 <path fill="none" stroke="rgb(0,69,134)" stroke-linejoin="round" d="M 1910,2902 L 1910,3152 2160,3152 2160,2902 1910,2902 Z"/>
 <path fill="rgb(0,69,134)" stroke="none" d="M 1905,2870 L 1905,3120 2155,3120 2155,2870 1905,2870 Z"/>
 <path fill="none" stroke="rgb(0,69,134)" stroke-linejoin="round" d="M 1905,2870 L 1905,3120 2155,3120 2155,2870 1905,2870 Z"/>
 <path fill="rgb(0,69,134)" stroke="none" d="M 1911,2838 L 1911,3088 2161,3088 2161,2838 1911,2838 Z"/>
 <path fill="none" stroke="rgb(0,69,134)" stroke-linejoin="round" d="M 1911,2838 L 1911,3088 2161,3088 2161,2838 1911,2838 Z"/>
 <path fill="rgb(0,69,134)" stroke="none" d="M 1870,2805 L 1870,3055 2120,3055 2120,2805 1870,2805 Z"/>
 <path fill="none" stroke="rgb(0,69,134)" stroke-linejoin="round" d="M 1870,2805 L 1870,3055 2120,3055 2120,2805 1870,2805 Z"/>
 <path fill="rgb(0,69,134)" stroke="none" d="M 1877,2773 L 1877,3023 2127,3023 2127,2773 1877,2773 Z"/>
 <path fill="none" stroke="rgb(0,69,134)" stroke-linejoin="round" d="M 1877,2773 L 1877,3023 2127,3023 2127,2773 1877,2773 Z"/>
 <path fill="rgb(0,69,134)" stroke="none" d="M 1875,2740 L 1875,2990 2125,2990 2125,2740 1875,2740 Z"/>
 <path fill="none" stroke="rgb(0,69,134)" stroke-linejoin="round" d="M 1875,2740 L 1875,2990 2125,2990 2125,2740 1875,2740 Z"/>
 <path fill="rgb(0,69,134)" stroke="none" d="M 1876,2708 L 1876,2958 2126,2958 2126,2708 1876,2708 Z"/>
 <path fill="none" stroke="rgb(0,69,134)" stroke-linejoin="round" d="M 1876,2708 L 1876,2958 2126,2958 2126,2708 1876,2708 Z"/>
 <path fill="rgb(0,69,134)" stroke="none" d="M 1885,2675 L 1885,2925 2135,2925 2135,2675 1885,2675 Z"/>
 <path fill="none" stroke="rgb(0,69,134)" stroke-linejoin="round" d="M 1885,2675 L 1885,2925 2135,2925 2135,2675 1885,2675 Z"/>
 <path fill="rgb(0,69,134)" stroke="none" d="M 1858,2643 L 1858,2893 2108,2893 2108,2643 1858,2643 Z"/>
 <path fill="none" stroke="rgb(0,69,134)" stroke-linejoin="round" d="M 1858,2643 L 1858,2893 2108,2893 2108,2643 1858,2643 Z"/>
 <path fill="rgb(0,69,134)" stroke="none" d="M 1837,2610 L 1837,2860 2087,2860 2087,2610 1837,2610 Z"/>
 <path fill="none" stroke="rgb(0,69,134)" stroke-linejoin="round" d="M 1837,2610 L 1837,2860 2087,2860 2087,2610 1837,2610 Z"/>
 <path fill="rgb(0,69,134)" stroke="none" d="M 1847,2578 L 1847,2828 2097,2828 2097,2578 1847,2578 Z"/>
 <path fill="none" stroke="rgb(0,69,134)" stroke-linejoin="round" d="M 1847,2578 L 1847,2828 2097,2828 2097,2578 1847,2578 Z"/>
 <path fill="rgb(0,69,134)" stroke="none" d="M 1830,2545 L 1830,2795 2080,2795 2080,2545 1830,2545 Z"/>
 <path fill="none" stroke="rgb(0,69,134)" stroke-linejoin="round" d="M 1830,2545 L 1830,2795 2080,2795 2080,2545 1830,2545 Z"/>
 <path fill="rgb(0,69,134)" stroke="none" d="M 1827,2513 L 1827,2763 2077,2763 2077,2513 1827,2513 Z"/>
 <path fill="none" stroke="rgb(0,69,134)" stroke-linejoin="round" d="M 1827,2513 L 1827,2763 2077,2763 2077,2513 1827,2513 Z"/>
 <path fill="rgb(0,69,134)" stroke="none" d="M 1807,2480 L 1807,2730 2057,2730 2057,2480 1807,2480 Z"/>
 <path fill="none" stroke="rgb(0,69,134)" stroke-linejoin="round" d="M 1807,2480 L 1807,2730 2057,2730 2057,2480 1807,2480 Z"/>
 <path fill="rgb(0,69,134)" stroke="none" d="M 1801,2448 L 1801,2698 2051,2698 2051,2448 1801,2448 Z"/>
 <path fill="none" stroke="rgb(0,69,134)" stroke-linejoin="round" d="M 1801,2448 L 1801,2698 2051,2698 2051,2448 1801,2448 Z"/>
 <path fill="rgb(0,69,134)" stroke="none" d="M 1782,2415 L 1782,2665 2032,2665 2032,2415 1782,2415 Z"/>
 <path fill="none" stroke="rgb(0,69,134)" stroke-linejoin="round" d="M 1782,2415 L 1782,2665 2032,2665 2032,2415 1782,2415 Z"/>
 <path fill="rgb(0,69,134)" stroke="none" d="M 1765,2383 L 1765,2633 2015,2633 2015,2383 1765,2383 Z"/>
 <path fill="none" stroke="rgb(0,69,134)" stroke-linejoin="round" d="M 1765,2383 L 1765,2633 2015,2633 2015,2383 1765,2383 Z"/>
 <path fill="rgb(0,69,134)" stroke="none" d="M 1738,2350 L 1738,2600 1988,2600 1988,2350 1738,2350 Z"/>
 <path fill="none" stroke="rgb(0,69,134)" stroke-linejoin="round" d="M 1738,2350 L 1738,2600 1988,2600 1988,2350 1738,2350 Z"/>
 <path fill="rgb(0,69,134)" stroke="none" d="M 1723,2318 L 1723,2568 1973,2568 1973,2318 1723,2318 Z"/>
 <path fill="none" stroke="rgb(0,69,134)" stroke-linejoin="round" d="M 1723,2318 L 1723,2568 1973,2568 1973,2318 1723,2318 Z"/>
 <path fill="rgb(0,69,134)" stroke="none" d="M 1709,2285 L 1709,2535 1959,2535 1959,2285 1709,2285 Z"/>
 <path fill="none" stroke="rgb(0,69,134)" stroke-linejoin="round" d="M 1709,2285 L 1709,2535 1959,2535 1959,2285 1709,2285 Z"/>
 <path fill="rgb(0,69,134)" stroke="none" d="M 2094,2253 L 2094,2503 2344,2503 2344,2253 2094,2253 Z"/>
 <path fill="none" stroke="rgb(0,69,134)" stroke-linejoin="round" d="M 2094,2253 L 2094,2503 2344,2503 2344,2253 2094,2253 Z"/>
 <path fill="rgb(0,69,134)" stroke="none" d="M 7561,2220 L 7561,2470 7811,2470 7811,2220 7561,2220 Z"/>
 <path fill="none" stroke="rgb(0,69,134)" stroke-linejoin="round" d="M 7561,2220 L 7561,2470 7811,2470 7811,2220 7561,2220 Z"/>
 <path fill="rgb(0,69,134)" stroke="none" d="M 10271,2188 L 10271,2438 10521,2438 10521,2188 10271,2188 Z"/>
 <path fill="none" stroke="rgb(0,69,134)" stroke-linejoin="round" d="M 10271,2188 L 10271,2438 10521,2438 10521,2188 10271,2188 Z"/>
 <path fill="rgb(0,69,134)" stroke="none" d="M 3897,2156 L 3897,2406 4147,2406 4147,2156 3897,2156 Z"/>
 <path fill="none" stroke="rgb(0,69,134)" stroke-linejoin="round" d="M 3897,2156 L 3897,2406 4147,2406 4147,2156 3897,2156 Z"/>
 <path fill="rgb(0,69,134)" stroke="none" d="M 1620,2123 L 1620,2373 1870,2373 1870,2123 1620,2123 Z"/>
 <path fill="none" stroke="rgb(0,69,134)" stroke-linejoin="round" d="M 1620,2123 L 1620,2373 1870,2373 1870,2123 1620,2123 Z"/>
 <path fill="rgb(0,69,134)" stroke="none" d="M 1607,2091 L 1607,2341 1857,2341 1857,2091 1607,2091 Z"/>
 <path fill="none" stroke="rgb(0,69,134)" stroke-linejoin="round" d="M 1607,2091 L 1607,2341 1857,2341 1857,2091 1607,2091 Z"/>
 <path fill="rgb(0,69,134)" stroke="none" d="M 1608,2058 L 1608,2308 1858,2308 1858,2058 1608,2058 Z"/>
 <path fill="none" stroke="rgb(0,69,134)" stroke-linejoin="round" d="M 1608,2058 L 1608,2308 1858,2308 1858,2058 1608,2058 Z"/>
 <path fill="rgb(0,69,134)" stroke="none" d="M 1610,2026 L 1610,2276 1860,2276 1860,2026 1610,2026 Z"/>
 <path fill="none" stroke="rgb(0,69,134)" stroke-linejoin="round" d="M 1610,2026 L 1610,2276 1860,2276 1860,2026 1610,2026 Z"/>
 <path fill="rgb(0,69,134)" stroke="none" d="M 1607,1993 L 1607,2243 1857,2243 1857,1993 1607,1993 Z"/>
 <path fill="none" stroke="rgb(0,69,134)" stroke-linejoin="round" d="M 1607,1993 L 1607,2243 1857,2243 1857,1993 1607,1993 Z"/>
 <path fill="rgb(0,69,134)" stroke="none" d="M 1572,1961 L 1572,2211 1822,2211 1822,1961 1572,1961 Z"/>
 <path fill="none" stroke="rgb(0,69,134)" stroke-linejoin="round" d="M 1572,1961 L 1572,2211 1822,2211 1822,1961 1572,1961 Z"/>
 <path fill="rgb(0,69,134)" stroke="none" d="M 1556,1928 L 1556,2178 1806,2178 1806,1928 1556,1928 Z"/>
 <path fill="none" stroke="rgb(0,69,134)" stroke-linejoin="round" d="M 1556,1928 L 1556,2178 1806,2178 1806,1928 1556,1928 Z"/>
 <path fill="rgb(0,69,134)" stroke="none" d="M 1555,1896 L 1555,2146 1805,2146 1805,1896 1555,1896 Z"/>
 <path fill="none" stroke="rgb(0,69,134)" stroke-linejoin="round" d="M 1555,1896 L 1555,2146 1805,2146 1805,1896 1555,1896 Z"/>
 <path fill="rgb(0,69,134)" stroke="none" d="M 1548,1863 L 1548,2113 1798,2113 1798,1863 1548,1863 Z"/>
 <path fill="none" stroke="rgb(0,69,134)" stroke-linejoin="round" d="M 1548,1863 L 1548,2113 1798,2113 1798,1863 1548,1863 Z"/>
 <path fill="rgb(0,69,134)" stroke="none" d="M 1535,1831 L 1535,2081 1785,2081 1785,1831 1535,1831 Z"/>
 <path fill="none" stroke="rgb(0,69,134)" stroke-linejoin="round" d="M 1535,1831 L 1535,2081 1785,2081 1785,1831 1535,1831 Z"/>
 <path fill="rgb(0,69,134)" stroke="none" d="M 1478,1798 L 1478,2048 1728,2048 1728,1798 1478,1798 Z"/>
 <path fill="none" stroke="rgb(0,69,134)" stroke-linejoin="round" d="M 1478,1798 L 1478,2048 1728,2048 1728,1798 1478,1798 Z"/>
 <path fill="rgb(0,69,134)" stroke="none" d="M 1485,1766 L 1485,2016 1735,2016 1735,1766 1485,1766 Z"/>
 <path fill="none" stroke="rgb(0,69,134)" stroke-linejoin="round" d="M 1485,1766 L 1485,2016 1735,2016 1735,1766 1485,1766 Z"/>
 <path fill="rgb(0,69,134)" stroke="none" d="M 1505,1733 L 1505,1983 1755,1983 1755,1733 1505,1733 Z"/>
 <path fill="none" stroke="rgb(0,69,134)" stroke-linejoin="round" d="M 1505,1733 L 1505,1983 1755,1983 1755,1733 1505,1733 Z"/>
 <path fill="rgb(0,69,134)" stroke="none" d="M 1514,1701 L 1514,1951 1764,1951 1764,1701 1514,1701 Z"/>
 <path fill="none" stroke="rgb(0,69,134)" stroke-linejoin="round" d="M 1514,1701 L 1514,1951 1764,1951 1764,1701 1514,1701 Z"/>
 <path fill="rgb(0,69,134)" stroke="none" d="M 1501,1668 L 1501,1918 1751,1918 1751,1668 1501,1668 Z"/>
 <path fill="none" stroke="rgb(0,69,134)" stroke-linejoin="round" d="M 1501,1668 L 1501,1918 1751,1918 1751,1668 1501,1668 Z"/>
 <path fill="rgb(0,69,134)" stroke="none" d="M 1455,1636 L 1455,1886 1705,1886 1705,1636 1455,1636 Z"/>
 <path fill="none" stroke="rgb(0,69,134)" stroke-linejoin="round" d="M 1455,1636 L 1455,1886 1705,1886 1705,1636 1455,1636 Z"/>
 <path fill="rgb(0,69,134)" stroke="none" d="M 1424,1603 L 1424,1853 1674,1853 1674,1603 1424,1603 Z"/>
 <path fill="none" stroke="rgb(0,69,134)" stroke-linejoin="round" d="M 1424,1603 L 1424,1853 1674,1853 1674,1603 1424,1603 Z"/>
 <path fill="rgb(0,69,134)" stroke="none" d="M 1401,1571 L 1401,1821 1651,1821 1651,1571 1401,1571 Z"/>
 <path fill="none" stroke="rgb(0,69,134)" stroke-linejoin="round" d="M 1401,1571 L 1401,1821 1651,1821 1651,1571 1401,1571 Z"/>
 <path fill="rgb(0,69,134)" stroke="none" d="M 1423,1539 L 1423,1789 1673,1789 1673,1539 1423,1539 Z"/>
 <path fill="none" stroke="rgb(0,69,134)" stroke-linejoin="round" d="M 1423,1539 L 1423,1789 1673,1789 1673,1539 1423,1539 Z"/>
 <path fill="rgb(0,69,134)" stroke="none" d="M 1423,1506 L 1423,1756 1673,1756 1673,1506 1423,1506 Z"/>
 <path fill="none" stroke="rgb(0,69,134)" stroke-linejoin="round" d="M 1423,1506 L 1423,1756 1673,1756 1673,1506 1423,1506 Z"/>
 <path fill="rgb(0,69,134)" stroke="none" d="M 1434,1474 L 1434,1724 1684,1724 1684,1474 1434,1474 Z"/>
 <path fill="none" stroke="rgb(0,69,134)" stroke-linejoin="round" d="M 1434,1474 L 1434,1724 1684,1724 1684,1474 1434,1474 Z"/>
 <path fill="rgb(0,69,134)" stroke="none" d="M 1430,1441 L 1430,1691 1680,1691 1680,1441 1430,1441 Z"/>
 <path fill="none" stroke="rgb(0,69,134)" stroke-linejoin="round" d="M 1430,1441 L 1430,1691 1680,1691 1680,1441 1430,1441 Z"/>
 <path fill="rgb(0,69,134)" stroke="none" d="M 1412,1409 L 1412,1659 1662,1659 1662,1409 1412,1409 Z"/>
 <path fill="none" stroke="rgb(0,69,134)" stroke-linejoin="round" d="M 1412,1409 L 1412,1659 1662,1659 1662,1409 1412,1409 Z"/>
 <path fill="rgb(0,69,134)" stroke="none" d="M 1403,1376 L 1403,1626 1653,1626 1653,1376 1403,1376 Z"/>
 <path fill="none" stroke="rgb(0,69,134)" stroke-linejoin="round" d="M 1403,1376 L 1403,1626 1653,1626 1653,1376 1403,1376 Z"/>
 <path fill="rgb(0,69,134)" stroke="none" d="M 1413,1344 L 1413,1594 1663,1594 1663,1344 1413,1344 Z"/>
 <path fill="none" stroke="rgb(0,69,134)" stroke-linejoin="round" d="M 1413,1344 L 1413,1594 1663,1594 1663,1344 1413,1344 Z"/>
 <path fill="rgb(0,69,134)" stroke="none" d="M 1419,1311 L 1419,1561 1669,1561 1669,1311 1419,1311 Z"/>
 <path fill="none" stroke="rgb(0,69,134)" stroke-linejoin="round" d="M 1419,1311 L 1419,1561 1669,1561 1669,1311 1419,1311 Z"/>
 <path fill="rgb(0,69,134)" stroke="none" d="M 1449,1279 L 1449,1529 1699,1529 1699,1279 1449,1279 Z"/>
 <path fill="none" stroke="rgb(0,69,134)" stroke-linejoin="round" d="M 1449,1279 L 1449,1529 1699,1529 1699,1279 1449,1279 Z"/>
 <path fill="rgb(0,69,134)" stroke="none" d="M 1462,1246 L 1462,1496 1712,1496 1712,1246 1462,1246 Z"/>
 <path fill="none" stroke="rgb(0,69,134)" stroke-linejoin="round" d="M 1462,1246 L 1462,1496 1712,1496 1712,1246 1462,1246 Z"/>
 <path fill="rgb(0,69,134)" stroke="none" d="M 1470,1214 L 1470,1464 1720,1464 1720,1214 1470,1214 Z"/>
 <path fill="none" stroke="rgb(0,69,134)" stroke-linejoin="round" d="M 1470,1214 L 1470,1464 1720,1464 1720,1214 1470,1214 Z"/>
 <path fill="rgb(0,69,134)" stroke="none" d="M 1473,1181 L 1473,1431 1723,1431 1723,1181 1473,1181 Z"/>
 <path fill="none" stroke="rgb(0,69,134)" stroke-linejoin="round" d="M 1473,1181 L 1473,1431 1723,1431 1723,1181 1473,1181 Z"/>
 <path fill="rgb(0,69,134)" stroke="none" d="M 1507,1149 L 1507,1399 1757,1399 1757,1149 1507,1149 Z"/>
 <path fill="none" stroke="rgb(0,69,134)" stroke-linejoin="round" d="M 1507,1149 L 1507,1399 1757,1399 1757,1149 1507,1149 Z"/>
 <text class="SVGTextShape"><tspan class="TextParagraph"><tspan class="TextPosition" x="558" y="8726"><tspan font-family="Liberation Sans, sans-serif" font-size="353px" font-weight="400" fill="rgb(0,0,0)" stroke="none" style="white-space: pre">20</tspan></tspan></tspan></text>
 <text class="SVGTextShape"><tspan class="TextParagraph"><tspan class="TextPosition" x="2021" y="8726"><tspan font-family="Liberation Sans, sans-serif" font-size="353px" font-weight="400" fill="rgb(0,0,0)" stroke="none" style="white-space: pre">40</tspan></tspan></tspan></text>
 <text class="SVGTextShape"><tspan class="TextParagraph"><tspan class="TextPosition" x="3483" y="8726"><tspan font-family="Liberation Sans, sans-serif" font-size="353px" font-weight="400" fill="rgb(0,0,0)" stroke="none" style="white-space: pre">60</tspan></tspan></tspan></text>
 <text class="SVGTextShape"><tspan class="TextParagraph"><tspan class="TextPosition" x="4946" y="8726"><tspan font-family="Liberation Sans, sans-serif" font-size="353px" font-weight="400" fill="rgb(0,0,0)" stroke="none" style="white-space: pre">80</tspan></tspan></tspan></text>
 <text class="SVGTextShape"><tspan class="TextParagraph"><tspan class="TextPosition" x="6313" y="8726"><tspan font-family="Liberation Sans, sans-serif" font-size="353px" font-weight="400" fill="rgb(0,0,0)" stroke="none" style="white-space: pre">100</tspan></tspan></tspan></text>
 <text class="SVGTextShape"><tspan class="TextParagraph"><tspan class="TextPosition" x="7775" y="8726"><tspan font-family="Liberation Sans, sans-serif" font-size="353px" font-weight="400" fill="rgb(0,0,0)" stroke="none" style="white-space: pre">120</tspan></tspan></tspan></text>
 <text class="SVGTextShape"><tspan class="TextParagraph"><tspan class="TextPosition" x="9237" y="8726"><tspan font-family="Liberation Sans, sans-serif" font-size="353px" font-weight="400" fill="rgb(0,0,0)" stroke="none" style="white-space: pre">140</tspan></tspan></tspan></text>
 <text class="SVGTextShape"><tspan class="TextParagraph"><tspan class="TextPosition" x="10699" y="8726"><tspan font-family="Liberation Sans, sans-serif" font-size="353px" font-weight="400" fill="rgb(0,0,0)" stroke="none" style="white-space: pre">160</tspan></tspan></tspan></text>
 <text class="SVGTextShape"><tspan class="TextParagraph"><tspan class="TextPosition" x="12161" y="8726"><tspan font-family="Liberation Sans, sans-serif" font-size="353px" font-weight="400" fill="rgb(0,0,0)" stroke="none" style="white-space: pre">180</tspan></tspan></tspan></text>
 <text class="SVGTextShape"><tspan class="TextParagraph"><tspan class="TextPosition" x="308" y="8279"><tspan font-family="Liberation Sans, sans-serif" font-size="353px" font-weight="400" fill="rgb(0,0,0)" stroke="none" style="white-space: pre">0</tspan></tspan></tspan></text>
 <text class="SVGTextShape"><tspan class="TextParagraph"><tspan class="TextPosition" x="308" y="7304"><tspan font-family="Liberation Sans, sans-serif" font-size="353px" font-weight="400" fill="rgb(0,0,0)" stroke="none" style="white-space: pre">1</tspan></tspan></tspan></text>
 <text class="SVGTextShape"><tspan class="TextParagraph"><tspan class="TextPosition" x="308" y="6330"><tspan font-family="Liberation Sans, sans-serif" font-size="353px" font-weight="400" fill="rgb(0,0,0)" stroke="none" style="white-space: pre">2</tspan></tspan></tspan></text>
 <text class="SVGTextShape"><tspan class="TextParagraph"><tspan class="TextPosition" x="308" y="5356"><tspan font-family="Liberation Sans, sans-serif" font-size="353px" font-weight="400" fill="rgb(0,0,0)" stroke="none" style="white-space: pre">3</tspan></tspan></tspan></text>
 <text class="SVGTextShape"><tspan class="TextParagraph"><tspan class="TextPosition" x="308" y="4383"><tspan font-family="Liberation Sans, sans-serif" font-size="353px" font-weight="400" fill="rgb(0,0,0)" stroke="none" style="white-space: pre">4</tspan></tspan></tspan></text>
 <text class="SVGTextShape"><tspan class="TextParagraph"><tspan class="TextPosition" x="308" y="3408"><tspan font-family="Liberation Sans, sans-serif" font-size="353px" font-weight="400" fill="rgb(0,0,0)" stroke="none" style="white-space: pre">5</tspan></tspan></tspan></text>
 <text class="SVGTextShape"><tspan class="TextParagraph"><tspan class="TextPosition" x="308" y="2434"><tspan font-family="Liberation Sans, sans-serif" font-size="353px" font-weight="400" fill="rgb(0,0,0)" stroke="none" style="white-space: pre">6</tspan></tspan></tspan></text>
 <text class="SVGTextShape"><tspan class="TextParagraph"><tspan class="TextPosition" x="308" y="1460"><tspan font-family="Liberation Sans, sans-serif" font-size="353px" font-weight="400" fill="rgb(0,0,0)" stroke="none" style="white-space: pre">7</tspan></tspan></tspan></text>
 <text class="SVGTextShape"><tspan class="TextParagraph"><tspan class="TextPosition" x="308" y="486"><tspan font-family="Liberation Sans, sans-serif" font-size="353px" font-weight="400" fill="rgb(0,0,0)" stroke="none" style="white-space: pre">8</tspan></tspan></tspan></text>
 <path fill="none" stroke="rgb(0,69,134)" stroke-width="80" stroke-linejoin="round" d="M 13172,4486 L 13972,4486"/>
 <path fill="rgb(0,69,134)" stroke="none" d="M 13466,4381 L 13466,4591 13677,4591 13677,4381 13466,4381 Z"/>
 <path fill="none" stroke="rgb(0,69,134)" stroke-linejoin="round" d="M 13466,4381 L 13466,4591 13677,4591 13677,4381 13466,4381 Z"/>
 <text class="SVGTextShape"><tspan class="TextParagraph"><tspan class="TextPosition" x="14072" y="4605"><tspan font-family="Liberation Sans, sans-serif" font-size="353px" font-weight="400" fill="rgb(0,0,0)" stroke="none" style="white-space: pre">timestamp</tspan></tspan></tspan></text>
</svg>